# xmcd
#
# Track frame offsets:
#	150
#	18262
#	37847
#	59195
#	75972
#	93862
#	109460
#	123732
#	139625
#	155685
#	177202
#
# Disc length: 2649 seconds
#
# Revision: 0
# Processed by: cddbd v1.5.2PL0 Copyright (c) Steve Scherf et al.
# Submitted via: EasyCDDAExtractor 15.3.0.1
#
DISCID=8b0a570b
DTITLE=Cher - Love Hurts (US Edition)
DYEAR=1991
DGENRE=Pop/Rock
TTITLE0=Save Up All Your Tears
TTITLE1=Love Hurts
TTITLE2=Love And Understanding
TTITLE3=Fires Of Eden
TTITLE4=I'll Never Stop Loving You
TTITLE5=One Small Step
TTITLE6=A World Without Heroes
TTITLE7=Could've Been You
TTITLE8=When Love Calls Your Name
TTITLE9=When Lovers Become Strangers
TTITLE10=Who You Gonna Believe
EXTD=YEAR: 1991\n
EXTT0=
EXTT1=
EXTT2=
EXTT3=
EXTT4=
EXTT5=
EXTT6=
EXTT7=
EXTT8=
EXTT9=
EXTT10=
PLAYORDER=
